name Walk10.mot
datacolumns 19
datarows 30
range 1.56500000 1.71000000
endheader

                time	   L_ground_force_vx	   L_ground_force_vy	   L_ground_force_vz	   L_ground_force_px	   L_ground_force_py	   L_ground_force_pz	   R_ground_force_vx	   R_ground_force_vy	   R_ground_force_vz	   R_ground_force_px	   R_ground_force_py	   R_ground_force_pz	   L_ground_torque_x	   L_ground_torque_y	   L_ground_torque_z	   R_ground_torque_x	   R_ground_torque_y	   R_ground_torque_z	
          1.56500000	          0.01720695	          0.04684767	          0.00451073	         -0.00016301	          0.00000000	          0.00016309	        -31.16933382	        707.23007333	         19.34886372	          0.35475201	          0.00000000	          0.08021188	          0.00000000	          0.00013358	          0.00000000	          0.00000000	          2.33259899	          0.00000000	
          1.57000000	          0.00771418	          0.02171094	          0.00292326	         -0.00012397	          0.00000000	          0.00012562	        -29.32525010	        697.40756924	         18.62806635	          0.35690193	          0.00000000	          0.07984938	          0.00000000	          0.00006762	          0.00000000	          0.00000000	          1.96811813	          0.00000000	
          1.57500000	          0.00101655	          0.00387417	          0.00167404	         -0.00008914	          0.00000000	          0.00009166	        -27.56777188	        688.50963315	         17.98782961	          0.35904052	          0.00000000	          0.07949325	          0.00000000	          0.00001998	          0.00000000	          0.00000000	          1.62155519	          0.00000000	
          1.58000000	         -0.00335890	         -0.00787061	          0.00074055	         -0.00005975	          0.00000000	          0.00006263	        -25.90036665	        680.52965157	         17.45466929	          0.36115832	          0.00000000	          0.07914233	          0.00000000	         -0.00001216	          0.00000000	          0.00000000	          1.29189523	          0.00000000	
          1.58500000	         -0.00589915	         -0.01477984	          0.00008335	         -0.00003618	          0.00000000	          0.00003906	        -24.32511242	        673.45022857	         17.04105762	          0.36324740	          0.00000000	          0.07879692	          0.00000000	         -0.00003180	          0.00000000	          0.00000000	          0.97792706	          0.00000000	
          1.59000000	         -0.00706161	         -0.01804169	         -0.00034469	         -0.00001820	          0.00000000	          0.00002086	        -22.83961029	        667.24923471	         16.74504984	          0.36530104	          0.00000000	          0.07845832	          0.00000000	         -0.00004189	          0.00000000	          0.00000000	          0.67802435	          0.00000000	
          1.59500000	         -0.00724858	         -0.01870657	         -0.00059193	         -0.00000523	          0.00000000	          0.00000753	        -21.43590502	        661.90384472	         16.55329120	          0.36731250	          0.00000000	          0.07812862	          0.00000000	         -0.00004504	          0.00000000	          0.00000000	          0.39020039	          0.00000000	
          1.60000000	         -0.00679521	         -0.01765348	         -0.00070366	          0.00000350	          0.00000000	         -0.00000161	        -20.10162317	        657.39294891	         16.44482543	          0.36927735	          0.00000000	          0.07781095	          0.00000000	         -0.00004350	          0.00000000	          0.00000000	          0.11189467	          0.00000000	
          1.60500000	         -0.00596705	         -0.01558198	         -0.00071966	          0.00000882	          0.00000000	         -0.00000734	        -18.82181398	        653.69590199	         16.39527144	          0.37119288	          0.00000000	          0.07750968	          0.00000000	         -0.00003907	          0.00000000	          0.00000000	         -0.15988851	          0.00000000	
          1.61000000	         -0.00496405	         -0.01302122	         -0.00067300	          0.00001153	          0.00000000	         -0.00001044	        -17.58146357	        650.78947372	         16.38115236	          0.37305732	          0.00000000	          0.07722962	          0.00000000	         -0.00003314	          0.00000000	          0.00000000	         -0.42801319	          0.00000000	
          1.61500000	         -0.00392825	         -0.01034923	         -0.00058986	          0.00001236	          0.00000000	         -0.00001160	        -16.36769083	        648.64622502	         16.38439033	          0.37487074	          0.00000000	          0.07697379	          0.00000000	         -0.00002672	          0.00000000	          0.00000000	         -0.69476852	          0.00000000	
          1.62000000	         -0.00295333	         -0.00781724	         -0.00048989	          0.00001192	          0.00000000	         -0.00001142	        -15.17064242	        647.23644821	         16.39515052	          0.37663550	          0.00000000	          0.07674374	          0.00000000	         -0.00002049	          0.00000000	          0.00000000	         -0.96142922	          0.00000000	
          1.62500000	         -0.00209456	         -0.00557527	         -0.00038703	          0.00001069	          0.00000000	         -0.00001041	        -13.98309969	        646.52631982	         16.41258914	          0.37835443	          0.00000000	          0.07653824	          0.00000000	         -0.00001487	          0.00000000	          0.00000000	         -1.22862066	          0.00000000	
          1.63000000	         -0.00137820	         -0.00369660	         -0.00029047	          0.00000906	          0.00000000	         -0.00000894	        -12.79989181	        646.47972946	         16.44433311	          0.38003066	          0.00000000	          0.07635333	          0.00000000	         -0.00001009	          0.00000000	          0.00000000	         -1.49709148	          0.00000000	
          1.63500000	         -0.00080981	         -0.00219950	         -0.00020557	          0.00000729	          0.00000000	         -0.00000728	        -11.61659795	        647.06035177	         16.50547291	          0.38166823	          0.00000000	          0.07618386	          0.00000000	         -0.00000623	          0.00000000	          0.00000000	         -1.76775673	          0.00000000	
          1.64000000	         -0.00038126	         -0.00106548	         -0.00013487	          0.00000558	          0.00000000	         -0.00000565	        -10.42894747	        648.23336943	         16.61593659	          0.38327145	          0.00000000	          0.07602478	          0.00000000	         -0.00000326	          0.00000000	          0.00000000	         -2.04114021	          0.00000000	
          1.64500000	         -0.00007629	         -0.00025398	         -0.00007886	          0.00000405	          0.00000000	         -0.00000415	         -9.23342852	        649.96810608	         16.79726429	          0.38484507	          0.00000000	          0.07587264	          0.00000000	         -0.00000110	          0.00000000	          0.00000000	         -2.31744302	          0.00000000	
          1.65000000	          0.00012531	          0.00028650	         -0.00003671	          0.00000274	          0.00000000	         -0.00000287	         -8.02740597	        652.23737055	         17.06850375	          0.38639371	          0.00000000	          0.07572587	          0.00000000	          0.00000038	          0.00000000	          0.00000000	         -2.59681096	          0.00000000	
          1.65500000	          0.00024469	          0.00061044	         -0.00000677	          0.00000169	          0.00000000	         -0.00000181	         -6.80865158	        655.01599477	         17.44314581	          0.38791994	          0.00000000	          0.07558419	          0.00000000	          0.00000129	          0.00000000	          0.00000000	         -2.87935330	          0.00000000	
          1.66000000	          0.00030189	          0.00076990	          0.00001296	          0.00000088	          0.00000000	         -0.00000100	         -5.57408473	        658.28029243	         17.92736866	          0.38942420	          0.00000000	          0.07544712	          0.00000000	          0.00000178	          0.00000000	          0.00000000	         -3.16546171	          0.00000000	
          1.66500000	          0.00031469	          0.00081127	          0.00002459	          0.00000029	          0.00000000	         -0.00000039	         -4.31926941	        662.00894447	         18.51967360	          0.39090448	          0.00000000	          0.07531374	          0.00000000	          0.00000195	          0.00000000	          0.00000000	         -3.45609152	          0.00000000	
          1.67000000	          0.00029802	          0.00077363	          0.00003010	         -0.00000011	          0.00000000	          0.00000003	         -3.03794134	        666.18621291	         19.21178857	          0.39235768	          0.00000000	          0.07518312	          0.00000000	          0.00000190	          0.00000000	          0.00000000	         -3.75236952	          0.00000000	
          1.67500000	          0.00026375	          0.00068832	          0.00003126	         -0.00000036	          0.00000000	          0.00000029	         -1.72284364	        670.80480066	         19.99045137	          0.39378161	          0.00000000	          0.07505599	          0.00000000	          0.00000172	          0.00000000	          0.00000000	         -4.05542765	          0.00000000	
          1.68000000	          0.00022092	          0.00057917	          0.00002952	         -0.00000049	          0.00000000	          0.00000044	         -0.36541382	        675.86359712	         20.83811422	          0.39517573	          0.00000000	          0.07493387	          0.00000000	          0.00000147	          0.00000000	          0.00000000	         -4.36645524	          0.00000000	
          1.68500000	          0.00017598	          0.00046336	          0.00002608	         -0.00000053	          0.00000000	          0.00000050	          1.04491815	        681.36507405	         21.73325828	          0.39654092	          0.00000000	          0.07481781	          0.00000000	          0.00000119	          0.00000000	          0.00000000	         -4.68688261	          0.00000000	
          1.69000000	          0.00013324	          0.00035246	          0.00002181	         -0.00000052	          0.00000000	          0.00000050	          2.52066882	        687.31623612	         22.65169555	          0.39787755	          0.00000000	          0.07470970	          0.00000000	          0.00000092	          0.00000000	          0.00000000	         -5.01850356	          0.00000000	
          1.69500000	          0.00009530	          0.00025346	          0.00001734	         -0.00000047	          0.00000000	          0.00000046	          4.07536790	        693.72352555	         23.56827054	          0.39918485	          0.00000000	          0.07461133	          0.00000000	          0.00000067	          0.00000000	          0.00000000	         -5.36370927	          0.00000000	
          1.70000000	          0.00006343	          0.00016993	          0.00001311	         -0.00000040	          0.00000000	          0.00000040	          5.72175288	        700.58710577	         24.45879375	          0.40046074	          0.00000000	          0.07452330	          0.00000000	          0.00000046	          0.00000000	          0.00000000	         -5.72508675	          0.00000000	
          1.70500000	          0.00003798	          0.00010292	          0.00000936	         -0.00000033	          0.00000000	          0.00000033	          7.47055741	        707.90087569	         25.30161952	          0.40170302	          0.00000000	          0.07444610	          0.00000000	          0.00000029	          0.00000000	          0.00000000	         -6.10455291	          0.00000000	
          1.71000000	          0.00001865	          0.00005181	          0.00000621	         -0.00000025	          0.00000000	          0.00000025	          9.32955511	        715.65573846	         26.07929306	          0.40291114	          0.00000000	          0.07438134	          0.00000000	          0.00000016	          0.00000000	          0.00000000	         -6.50300358	          0.00000000	
